# xmcd CD database file
#
# Track frame offsets:
#	150
#	5134
#	10869
#	44575
#	60083
#	82053
#	91732
#	117147
#	149204
#	156538
#	159275
#	183322
#	189194
#	217660
#	221228
#	241577
#	260630
#
# Disc length: 3795 seconds
#
# Revision: 1
# Processed by: cddbd v1.5.2PL0 Copyright (c) Steve Scherf et al.
# Submitted via: CDex 1.70beta3
#
DISCID=e40ed111
DTITLE=BAHO - HAPPENINGS -revisited-
DYEAR=1992
DGENRE=J-Rock
TTITLE0=INTRODUCTION
TTITLE1=BAHO'S TALK #1
TTITLE2=HAPPINESS
TTITLE3=BAHO'S TALK #2
TTITLE4=TIME AFTER TIME
TTITLE5=BAHO'S TALK #3
TTITLE6=DIAMOND HEAD
TTITLE7=VOICES
TTITLE8=BAHO'S TALK #4
TTITLE9=STONED BAMBOO
TTITLE10=アミーゴ
TTITLE11=BAHO'S TALK #5
TTITLE12=ALL AROUND ME
TTITLE13=ENDING
TTITLE14=ANYTIME
TTITLE15=BAHO'S RAP (Bonus Tracks)
TTITLE16=BLACK SHOES (Bonus Tracks)
EXTD=YEAR: 1992
EXTT0=
EXTT1=
EXTT2=
EXTT3=
EXTT4=
EXTT5=
EXTT6=
EXTT7=
EXTT8=
EXTT9=
EXTT10=
EXTT11=
EXTT12=
EXTT13=
EXTT14=
EXTT15=
EXTT16=
PLAYORDER=
